<?xml version="1.0" encoding="UTF-8" standalone="no"?>
<svg
   xmlns:dc="http://purl.org/dc/elements/1.1/"
   xmlns:cc="http://creativecommons.org/ns#"
   xmlns:rdf="http://www.w3.org/1999/02/22-rdf-syntax-ns#"
   xmlns:svg="http://www.w3.org/2000/svg"
   xmlns="http://www.w3.org/2000/svg"
   xmlns:sodipodi="http://sodipodi.sourceforge.net/DTD/sodipodi-0.dtd"
   xmlns:inkscape="http://www.inkscape.org/namespaces/inkscape"
   id="Capa_1"
   enable-background="new 0 0 512 512"
   height="511.99988"
   viewBox="0 0 454.54022 511.99988"
   width="454.54022"
   version="1.1"
   sodipodi:docname="contract.svg"
   inkscape:version="0.92.4 (5da689c313, 2019-01-14)">
  <metadata
     id="metadata97">
    <rdf:RDF>
      <cc:Work
         rdf:about="">
        <dc:format>image/svg+xml</dc:format>
        <dc:type
           rdf:resource="http://purl.org/dc/dcmitype/StillImage" />
      </cc:Work>
    </rdf:RDF>
  </metadata>
  <defs
     id="defs95" />
  <sodipodi:namedview
     pagecolor="#ffffff"
     bordercolor="#666666"
     borderopacity="1"
     objecttolerance="10"
     gridtolerance="10"
     guidetolerance="10"
     inkscape:pageopacity="0"
     inkscape:pageshadow="2"
     inkscape:window-width="3840"
     inkscape:window-height="2066"
     id="namedview93"
     showgrid="false"
     inkscape:zoom="0.4609375"
     inkscape:cx="227.27"
     inkscape:cy="255.99988"
     inkscape:window-x="2869"
     inkscape:window-y="-11"
     inkscape:window-maximized="1"
     inkscape:current-layer="Capa_1" />
  <g
     id="g90"
     transform="translate(-28.73)">
    <g
       id="g72">
      <g
         id="g70">
        <g
           id="g68">
          <g
             id="g26">
            <g
               id="g24">
              <g
                 id="g22">
                <g
                   id="g20">
                  <g
                     id="g18">
                    <g
                       id="g16">
                      <g
                         id="g14">
                        <g
                           id="g12">
                          <g
                             id="g10">
                            <g
                               id="g8">
                              <path
                                 d="M 67.127,7.5 C 50.065,7.5 36.234,21.331 36.234,38.393 v 397.945 c 0,17.062 13.831,30.893 30.893,30.893 h 290.456 c 17.062,0 30.893,-13.831 30.893,-30.893 V 102.764 c 0,-6.207 -2.466,-12.16 -6.855,-16.549 l -71.86,-71.86 C 305.373,9.966 299.42,7.5 293.213,7.5 Z"
                                 id="path2"
                                 inkscape:connector-curvature="0"
                                 style="fill:#f4f8f8" />
                              <path
                                 d="m 333.801,93.069 c -2.326,0 -4.589,-0.266 -6.769,-0.753 v 344.022 c 0,17.062 -13.832,30.893 -30.894,30.893 h 61.445 c 17.062,0 30.893,-13.832 30.893,-30.893 V 102.763 c 0,-3.378 -0.735,-6.678 -2.109,-9.694 z"
                                 id="path4"
                                 inkscape:connector-curvature="0"
                                 style="fill:#e7ecf1" />
                              <path
                                 d="m 381.622,86.214 -71.86,-71.86 c -2.001,-2.001 -4.328,-3.596 -6.855,-4.746 v 52.567 c 0,17.062 13.831,30.893 30.893,30.893 h 52.568 c -1.15,-2.525 -2.746,-4.853 -4.746,-6.854 z"
                                 id="path6"
                                 inkscape:connector-curvature="0"
                                 style="fill:#fc8086" />
                            </g>
                          </g>
                        </g>
                      </g>
                    </g>
                  </g>
                </g>
              </g>
            </g>
          </g>
          <g
             id="g66">
            <g
               id="g58">
              <g
                 id="g56">
                <g
                   id="g34">
                  <g
                     id="g30">
                    <path
                       d="M 413.147,409.314 302.803,343.97 c -5.658,-3.354 -7.527,-10.659 -4.174,-16.318 0,0 2.726,-4.602 5.645,-9.53 L 281.95,304.915 c -14.727,-8.451 -21.613,-10.014 -34.899,-4.878 l -14.48,5.598 c -8.812,3.407 -18.699,2.584 -26.827,-2.231 l -38.757,-22.851 -55.046,92.915 49.627,29.291 c 3.362,1.992 6.314,4.604 8.7,7.698 l 16.723,21.688 c 9.237,10.803 28.3,24.817 40.528,32.061 l 63.827,37.813 c 8.425,4.991 19.301,2.208 24.292,-6.217 4.991,-8.425 2.207,-19.301 -6.217,-24.292 l 19.941,11.814 c 8.425,4.991 19.301,2.208 24.292,-6.217 4.991,-8.425 2.208,-19.301 -6.217,-24.292 l 13.294,7.876 c 8.425,4.991 19.301,2.208 24.292,-6.217 4.991,-8.425 2.208,-19.301 -6.217,-24.292 l 16.269,9.638 c 8.424,4.991 19.299,2.207 24.29,-6.217 4.989,-8.423 2.206,-19.298 -6.218,-24.289 z"
                       id="path28"
                       inkscape:connector-curvature="0"
                       style="fill:#ffece3" />
                  </g>
                  <path
                     d="M 413.147,409.314 375.12,386.795 c -0.837,3.253 -2.451,6.403 -5.085,9.138 -6.745,7.003 -17.573,8.142 -25.938,3.187 l -10.817,-6.408 c -0.385,-0.228 -0.877,-0.159 -1.184,0.167 -0.314,0.333 -0.339,0.836 -0.075,1.21 4.526,6.44 5.155,15.188 0.883,22.4 -5.812,9.811 -18.478,13.052 -28.289,7.24 l -8.498,-5.072 c -0.335,-0.2 -0.765,-0.137 -1.029,0.151 -0.27,0.294 -0.281,0.734 -0.04,1.052 4.988,6.583 5.755,15.817 1.129,23.313 -5.959,9.656 -18.797,12.421 -28.559,6.637 l -6.979,-4.134 c -1.385,-0.821 -3.124,-0.751 -4.439,0.179 -1.315,0.93 -1.965,2.547 -1.642,4.125 0.991,4.843 0.264,10.051 -2.454,14.639 -2.325,3.924 -5.754,6.776 -9.65,8.439 l 48.491,28.728 c 8.55,5.066 19.957,2.37 24.862,-6.273 4.756,-8.382 1.94,-19.065 -6.387,-23.999 l 19.541,11.577 c 8.551,5.066 19.957,2.37 24.862,-6.274 4.756,-8.383 1.94,-19.065 -6.387,-23.999 l 12.894,7.639 c 8.55,5.066 19.957,2.371 24.862,-6.273 4.756,-8.382 1.941,-19.066 -6.387,-23.999 l 15.869,9.402 c 8.55,5.065 19.955,2.37 24.86,-6.273 4.755,-8.384 1.94,-19.067 -6.387,-24 z"
                     id="path32"
                     inkscape:connector-curvature="0"
                     style="fill:#ffddce" />
                </g>
                <g
                   id="g38">
                  <path
                     d="m 403.59,286.104 -29.766,17.302 c -8.128,4.815 -18.016,5.637 -26.827,2.231 l -16.33,-6.415 c -5.108,-2.007 -10.716,-2.362 -16.036,-1.015 l -25.02,6.332 c -11.648,2.948 -19.806,13.428 -19.806,25.443 v 33.4 c 0,4.722 3.827,8.563 8.549,8.566 14.241,0.009 25.788,-11.532 25.788,-25.77 v -1.414 l 107.097,63.422 c 1.984,-2.113 4.258,-3.941 6.761,-5.423 l 40.637,-23.742 z"
                     id="path36"
                     inkscape:connector-curvature="0"
                     style="fill:#fcd0a3" />
                </g>
                <g
                   id="g42">
                  <path
                     d="m 419.468,312.905 -5.723,21.223 -64.118,37.571 61.611,36.485 c 1.984,-2.113 4.259,-3.941 6.761,-5.423 l 40.637,-23.742 z"
                     id="path40"
                     inkscape:connector-curvature="0"
                     style="fill:#ffb983" />
                </g>
                <g
                   id="g54">
                  <g
                     id="g50"
                     style="fill:#fcd0a3">
                    <path
                       d="m 183.318,422.438 -10.041,13.986 c -5.709,7.952 -16.784,9.771 -24.736,4.062 -7.952,-5.709 -9.771,-16.784 -4.062,-24.736 l 10.041,-13.986 c 5.709,-7.952 16.784,-9.771 24.736,-4.062 7.952,5.709 9.771,16.784 4.062,24.736 z"
                       id="path44"
                       inkscape:connector-curvature="0" />
                    <path
                       d="m 223.197,427.677 -21.122,29.421 c -5.709,7.952 -16.784,9.771 -24.736,4.062 -7.952,-5.709 -9.771,-16.784 -4.062,-24.736 l 21.122,-29.421 c 5.709,-7.952 16.784,-9.771 24.736,-4.062 7.952,5.709 9.771,16.784 4.062,24.736 z"
                       id="path46"
                       inkscape:connector-curvature="0" />
                    <path
                       d="m 251.995,448.352 -21.122,29.421 c -5.709,7.952 -16.784,9.771 -24.736,4.062 -7.952,-5.709 -9.771,-16.784 -4.062,-24.736 l 21.122,-29.421 c 5.709,-7.952 16.784,-9.771 24.736,-4.062 7.952,5.709 9.771,16.783 4.062,24.736 z"
                       id="path48"
                       inkscape:connector-curvature="0" />
                  </g>
                  <path
                     d="m 271.408,482.099 -7.024,9.784 c -5.709,7.952 -16.784,9.771 -24.736,4.062 -7.952,-5.709 -9.771,-16.784 -4.062,-24.736 l 7.024,-9.784 c 5.709,-7.952 16.784,-9.771 24.736,-4.062 7.952,5.709 9.771,16.784 4.062,24.736 z"
                     id="path52"
                     inkscape:connector-curvature="0"
                     style="fill:#ffb983" />
                </g>
              </g>
            </g>
            <g
               id="g64"
               style="fill:#7c8b96">
              <path
                 d="m 187.734,270.894 -15.525,-9.197 c -4.271,-2.53 -9.784,-1.119 -12.314,3.152 L 96.068,372.586 c -2.53,4.271 -1.119,9.784 3.152,12.314 l 15.525,9.197 c 10.413,6.169 23.856,2.729 30.025,-7.685 l 50.649,-85.493 c 6.169,-10.413 2.728,-23.856 -7.685,-30.025 z"
                 id="path60"
                 inkscape:connector-curvature="0" />
              <path
                 d="m 398.368,261.697 -15.525,9.197 c -10.413,6.169 -13.854,19.612 -7.685,30.025 l 50.649,85.493 c 6.169,10.413 19.612,13.854 30.025,7.685 l 15.525,-9.197 c 4.271,-2.53 5.682,-8.044 3.152,-12.314 L 410.682,264.849 c -2.53,-4.271 -8.043,-5.682 -12.314,-3.152 z"
                 id="path62"
                 inkscape:connector-curvature="0" />
            </g>
          </g>
        </g>
      </g>
    </g>
    <g
       id="g88">
      <g
         id="g86">
        <g
           id="g84">
          <path
             d="M 334.954,137.804 H 89.765 c -4.16,0 -7.532,3.372 -7.532,7.532 0,4.16 3.372,7.532 7.532,7.532 h 245.19 c 4.16,0 7.532,-3.372 7.532,-7.532 0,-4.16 -3.373,-7.532 -7.533,-7.532 z"
             id="path74"
             inkscape:connector-curvature="0" />
          <path
             d="m 89.765,100.621 h 122.594 c 4.16,0 7.532,-3.372 7.532,-7.532 0,-4.16 -3.372,-7.532 -7.532,-7.532 H 89.765 c -4.16,0 -7.532,3.372 -7.532,7.532 0,4.161 3.372,7.532 7.532,7.532 z"
             id="path76"
             inkscape:connector-curvature="0" />
          <path
             d="M 334.954,184.096 H 89.765 c -4.16,0 -7.532,3.372 -7.532,7.532 0,4.16 3.372,7.532 7.532,7.532 h 245.19 c 4.16,0 7.532,-3.372 7.532,-7.532 -0.001,-4.16 -3.373,-7.532 -7.533,-7.532 z"
             id="path78"
             inkscape:connector-curvature="0" />
          <path
             d="M 145.618,459.668 H 67.151 c -12.879,0 -23.358,-10.478 -23.358,-23.357 V 38.421 c 0,-12.879 10.479,-23.358 23.358,-23.358 h 226.056 c 0.73,0 1.449,0.067 2.16,0.163 V 62.2 c 0,21.186 17.236,38.421 38.421,38.421 h 46.973 c 0.097,0.712 0.163,1.431 0.163,2.161 v 128.261 c 0,4.16 3.372,7.532 7.532,7.532 4.16,0 7.532,-3.372 7.532,-7.532 v -128.26 c 0,-8.262 -3.218,-16.03 -9.06,-21.873 L 315.078,9.06 C 309.236,3.218 301.469,0 293.207,0 H 67.151 C 45.965,0 28.73,17.236 28.73,38.421 v 397.89 c 0,21.185 17.236,38.42 38.421,38.42 h 78.467 c 4.16,0 7.532,-3.372 7.532,-7.532 0,-4.16 -3.372,-7.531 -7.532,-7.531 z M 370.273,85.558 H 333.789 C 320.91,85.558 310.431,75.079 310.431,62.2 V 25.716 Z"
             id="path80"
             inkscape:connector-curvature="0" />
          <path
             d="M 480.958,368.729 417.14,261.009 c -4.651,-7.854 -14.773,-10.45 -22.631,-5.795 l -15.523,9.197 c -12.049,7.138 -17.142,21.583 -13.005,34.384 -5.23,1.895 -10.964,1.865 -16.244,-0.176 -12.256,-3.856 -21.574,-11.613 -36.963,-7.721 -26.13,6.653 -25.336,6.32 -27.7,7.13 -15.3,-8.711 -24.497,-11.303 -40.739,-5.02 l -14.478,5.597 c -6.703,2.59 -14.089,1.976 -20.283,-1.694 l -3.951,-2.329 c 1.928,-11.552 -3.195,-23.743 -14.043,-30.169 0,0 0,0 -0.001,-0.001 l -15.522,-9.196 c -7.836,-4.641 -17.988,-2.043 -22.63,5.793 L 89.607,368.73 c -4.651,7.852 -2.063,17.977 5.793,22.63 l 15.522,9.196 c 4.697,2.783 9.859,4.106 14.959,4.106 5.687,0 11.294,-1.648 16.088,-4.752 l 3.235,1.909 -6.83,9.513 c -8.139,11.338 -5.553,27.104 5.787,35.244 5.244,3.764 11.832,5.483 18.645,4.413 1.081,6.319 4.543,12.233 10.149,16.259 5.265,3.78 11.823,5.501 18.648,4.426 1.084,6.314 4.544,12.223 10.147,16.246 7.53,5.405 16.892,6.03 24.693,2.698 1.707,4.434 4.674,8.438 8.813,11.41 10.808,7.757 25.696,5.734 34.094,-4.316 l 18.15,10.752 c 12.003,7.113 27.49,3.16 34.607,-8.857 1.82,-3.072 2.949,-6.42 3.362,-9.861 l 0.041,0.025 c 11.985,7.098 27.507,3.124 34.607,-8.858 2.056,-3.471 3.183,-7.236 3.457,-11.009 10.564,2.656 22.077,-1.781 27.907,-11.621 1.913,-3.228 3.022,-6.715 3.387,-10.224 11.322,4.443 24.555,0.149 30.949,-10.643 3.439,-5.805 4.412,-12.601 2.739,-19.138 -0.957,-3.74 -2.717,-7.135 -5.133,-10.002 l 10.004,-5.845 c 8.463,3.474 18.121,2.918 26.215,-1.876 l 15.52,-9.196 c 7.856,-4.65 10.451,-14.773 5.796,-22.63 z M 118.6,387.597 103.078,378.4 c -0.69,-0.409 -0.919,-1.303 -0.511,-1.993 l 63.82,-107.723 c 0.411,-0.693 1.308,-0.918 1.994,-0.51 l 15.521,9.195 c 6.897,4.087 9.055,12.933 5.043,19.704 l -50.641,85.48 c -4.042,6.824 -12.88,9.085 -19.704,5.044 z m 34.345,46.742 c -4.574,-3.284 -5.62,-9.646 -2.334,-14.222 l 10.039,-13.984 c 3.198,-4.455 9.571,-5.674 14.222,-2.335 4.565,3.277 5.612,9.656 2.336,14.221 l -10.04,13.984 c -3.277,4.567 -9.66,5.611 -14.223,2.336 z m 28.795,20.673 c -4.565,-3.278 -5.612,-9.659 -2.335,-14.223 l 10.039,-13.983 c 0,0 0,0 0,-10e-4 0,0 0,-0.001 0.001,-0.001 l 11.079,-15.432 c 1.588,-2.211 3.941,-3.673 6.627,-4.113 0.558,-0.092 1.117,-0.137 1.672,-0.137 2.114,0 4.171,0.658 5.923,1.915 2.21,1.588 3.672,3.94 4.112,6.626 0.441,2.687 -0.19,5.384 -1.778,7.595 l -21.119,29.418 c -3.282,4.575 -9.645,5.622 -14.221,2.336 z m 28.795,20.671 c -4.563,-3.276 -5.611,-9.652 -2.34,-14.216 0.001,-0.002 0.003,-0.004 0.004,-0.006 l 21.119,-29.417 c 3.275,-4.564 9.659,-5.612 14.222,-2.336 4.565,3.277 5.612,9.657 2.335,14.222 l -9.383,13.071 c 0,0 0,0 -10e-4,0.001 l -11.735,16.346 c -3.277,4.565 -9.655,5.614 -14.221,2.335 z m 33.506,14.108 c -4.562,-3.276 -5.611,-9.649 -2.342,-14.214 l 7.029,-9.79 c 3.276,-4.566 9.659,-5.61 14.222,-2.335 4.564,3.276 5.612,9.657 2.335,14.222 l -7.023,9.781 c -3.276,4.566 -9.658,5.614 -14.221,2.336 z M 412.86,429.739 c -2.866,4.837 -9.13,6.441 -13.968,3.576 -8.192,-4.853 -61.036,-36.16 -66.67,-39.498 -3.58,-2.12 -8.199,-0.939 -10.319,2.64 -2.12,3.579 -0.939,8.199 2.64,10.319 l 50.403,29.861 10e-4,10e-4 c 4.839,2.866 6.453,9.111 3.576,13.969 -2.867,4.839 -9.134,6.44 -13.97,3.577 -18.642,-11.044 -33.779,-20.012 -50.43,-29.877 -3.581,-2.12 -8.199,-0.939 -10.319,2.64 -2.12,3.579 -0.939,8.199 2.64,10.319 l 37.138,22.002 0.008,0.005 c 4.842,2.875 6.44,9.117 3.569,13.965 -2.867,4.839 -9.132,6.442 -13.971,3.576 l -19.931,-11.807 c -0.002,-0.001 -0.005,-0.002 -0.007,-0.004 -0.002,-10e-4 -0.004,-0.002 -0.006,-0.003 l -14.545,-8.618 c -3.58,-2.121 -8.199,-0.94 -10.319,2.64 -2.12,3.579 -0.939,8.199 2.64,10.319 l 14.548,8.619 c 0.002,0.001 0.004,0.003 0.006,0.004 4.839,2.866 6.453,9.11 3.576,13.968 -2.867,4.839 -9.132,6.442 -13.971,3.576 l -16.971,-10.053 c 7.275,-11.226 4.508,-26.354 -6.473,-34.236 -3.225,-2.314 -6.816,-3.755 -10.489,-4.374 3.896,-10.417 0.537,-22.579 -8.922,-29.369 -5.6,-4.022 -12.305,-5.411 -18.633,-4.419 -1.126,-6.585 -4.727,-12.353 -10.16,-16.252 -10.218,-7.333 -24.104,-5.924 -32.681,2.753 -1.743,-3.061 -4.149,-5.807 -7.193,-7.992 -8.491,-6.094 -19.515,-6.151 -27.921,-1.018 l -3.451,-2.037 47.37,-79.959 2.255,1.33 c 9.96,5.9 22.114,7.13 33.378,2.774 l 14.478,-5.597 c 8.285,-3.202 12.854,-3.411 21.049,0.456 -5.362,6.024 -8.545,13.933 -8.545,22.457 v 33.395 c 0,8.87 7.211,16.091 16.074,16.097 h 0.022 c 8.89,0 17.25,-3.461 23.539,-9.746 3.666,-3.664 6.372,-8.032 7.994,-12.8 9.725,5.759 90.072,53.338 99.387,58.857 2.343,1.388 4.005,3.605 4.68,6.243 0.675,2.635 0.282,5.378 -1.106,7.721 z m 54.628,-51.339 -15.523,9.197 c -6.824,4.04 -15.662,1.777 -19.702,-5.043 l -23.736,-40.065 c -2.121,-3.579 -6.743,-4.76 -10.319,-2.642 -3.579,2.12 -4.761,6.74 -2.642,10.319 l 23.736,40.066 c 0.447,0.754 0.932,1.471 1.434,2.17 l -6.599,3.855 c -1.334,0.79 -2.617,1.66 -3.844,2.605 L 307.97,338.267 c -5.013,-2.967 -11.369,0.65 -11.369,6.48 -0.079,0.45 0.778,8.192 -5.345,14.313 -3.444,3.441 -8.022,5.337 -12.891,5.337 -0.004,0 -0.008,0 -0.012,0 -0.563,0 -1.021,-0.464 -1.021,-1.034 v -33.395 c 0,-8.724 6.002,-16.084 14.119,-18.139 l 25.016,-6.331 c 9.077,-2.294 14.208,2.553 27.799,7.153 9.435,3.65 19.694,3.425 28.8,-0.464 l 4.546,7.674 c 2.121,3.581 6.741,4.761 10.319,2.642 3.579,-2.12 4.761,-6.74 2.642,-10.319 l -8.954,-15.113 c -4.051,-6.838 -1.794,-15.65 5.043,-19.703 l 15.522,-9.195 c 0.678,-0.403 1.575,-0.197 1.995,0.511 l 63.818,107.721 c 0.412,0.695 0.185,1.584 -0.509,1.995 z"
             id="path82"
             inkscape:connector-curvature="0" />
        </g>
      </g>
    </g>
  </g>
</svg>
