<?xml version="1.0" encoding="UTF-8" standalone="no"?>
<!-- Generator: Adobe Illustrator 19.0.0, SVG Export Plug-In . SVG Version: 6.00 Build 0)  -->

<svg
   xmlns:dc="http://purl.org/dc/elements/1.1/"
   xmlns:cc="http://creativecommons.org/ns#"
   xmlns:rdf="http://www.w3.org/1999/02/22-rdf-syntax-ns#"
   xmlns:svg="http://www.w3.org/2000/svg"
   xmlns="http://www.w3.org/2000/svg"
   xmlns:sodipodi="http://sodipodi.sourceforge.net/DTD/sodipodi-0.dtd"
   xmlns:inkscape="http://www.inkscape.org/namespaces/inkscape"
   version="1.1"
   id="Layer_1"
   x="0px"
   y="0px"
   viewBox="0 0 507.6 372"
   xml:space="preserve"
   sodipodi:docname="download.svg"
   width="507.60001"
   height="372"
   inkscape:version="0.92.4 (5da689c313, 2019-01-14)"><metadata
   id="metadata67"><rdf:RDF><cc:Work
       rdf:about=""><dc:format>image/svg+xml</dc:format><dc:type
         rdf:resource="http://purl.org/dc/dcmitype/StillImage" /></cc:Work></rdf:RDF></metadata><defs
   id="defs65" /><sodipodi:namedview
   pagecolor="#ffffff"
   bordercolor="#666666"
   borderopacity="1"
   objecttolerance="10"
   gridtolerance="10"
   guidetolerance="10"
   inkscape:pageopacity="0"
   inkscape:pageshadow="2"
   inkscape:window-width="3840"
   inkscape:window-height="2066"
   id="namedview63"
   showgrid="false"
   inkscape:zoom="1.3150291"
   inkscape:cx="-177.09511"
   inkscape:cy="95.691737"
   inkscape:window-x="2869"
   inkscape:window-y="-11"
   inkscape:window-maximized="1"
   inkscape:current-layer="Layer_1" />
<circle
   style="fill:#aeb1b4"
   cx="66"
   cy="303.20001"
   r="12"
   id="circle2" />
<path
   style="fill:#f4efef"
   d="m 477.6,244.4 -62.8,-62 C 408.4,176 400,172 392,172 H 124 c -7.6,0 -16,4.4 -23.2,10.8 l -63.2,61.2 -6.8,6 c 7.6,-3.6 16.4,-6 25.2,-6 h 403.6 c 10.8,0 20.4,3.6 27.6,8.8 z"
   id="path4"
   inkscape:connector-curvature="0" />
<path
   style="fill:#e8e3e3"
   d="m 459.6,240 c 26.4,0 44,22.8 44,49.2 v 28 c 0,26.4 -17.6,46.8 -44,46.8 H 56 C 29.6,364 8,343.6 8,317.2 v -28 C 8,262.8 29.6,240 56,240 Z"
   id="path6"
   inkscape:connector-curvature="0" />


<g
   id="g16"
   transform="translate(0,-67.8)">
	<polygon
   style="fill:#54b265"
   points="169.6,167.8 253.6,275.8 341.6,167.8 305.2,167.8 305.2,71.8 205.2,71.8 205.2,167.8 "
   id="polygon12" />
	<circle
   style="fill:#54b265"
   cx="66"
   cy="371"
   r="14"
   id="circle14" />
</g>
<path
   d="m 253.6,212 v 0 c -1.2,0 -2.4,-0.8 -3.2,-1.6 l -81.6,-108 c -0.8,-1.2 -1.2,-2.8 -0.4,-4 0.8,-1.2 2,-2.4 3.6,-2.4 h 27.6 V 4 c 0,-2.4 1.6,-4 4,-4 h 104 c 2.4,0 4,1.6 4,4 V 96 H 340 c 1.6,0 2.8,0.8 3.6,2.4 0.8,1.2 0.4,3.2 -0.4,4.4 l -86.4,108 c -0.8,0.8 -2,1.2 -3.2,1.2 z M 180,104 l 73.6,97.6 78,-97.6 h -24 c -2.4,0 -4,-1.6 -4,-4 V 8 h -96 v 92 c 0,2.4 -1.6,4 -4,4 z"
   id="path18"
   inkscape:connector-curvature="0" />
<path
   d="M 459.6,372 H 56 C 27.2,372 0,345.2 0,317.2 v -28 C 0,259.6 29.2,240 56,240 h 348 c 2.4,0 4,1.6 4,4 0,2.4 -1.6,4 -4,4 H 56 C 32.8,248 8,264.4 8,289.2 v 28 c 0,24 23.6,46.8 48,46.8 h 403.6 c 25.2,0 40,-23.6 40,-46.8 v -28 c 0,-24.8 -16,-41.2 -40,-41.2 h -20 c -2.4,0 -4,-1.6 -4,-4 0,-2.4 1.6,-4 4,-4 h 20 c 28.4,0 48,20.4 48,49.2 v 28 c 0,26.8 -18,54.8 -48,54.8 z"
   id="path20"
   inkscape:connector-curvature="0" />


<path
   d="m 66,321.2 c -10,0 -18,-8 -18,-18 0,-10 8,-18 18,-18 10,0 18,8 18,18 0,10 -8,18 -18,18 z m 0,-28 c -5.6,0 -10,4.4 -10,10 0,5.6 4.4,10 10,10 5.6,0 10,-4.4 10,-10 0,-5.6 -4.4,-10 -10,-10 z"
   id="path26"
   inkscape:connector-curvature="0" />
<path
   d="m 488.8,257.2 c -1.2,0 -2,-0.4 -2.8,-1.2 l -72.8,-71.2 c -6,-5.6 -13.6,-8.8 -21.6,-8.8 h -76 c -2.4,0 -4,-1.6 -4,-4 0,-2.4 1.6,-4 4,-4 h 76 c 10,0 19.6,4 27.2,11.2 l 72.8,71.2 c 1.6,1.6 1.6,4 0,5.6 -0.8,0.8 -1.6,1.2 -2.8,1.2 z"
   id="path28"
   inkscape:connector-curvature="0" />
<path
   d="m 27.6,255.2 c -1.2,0 -2,-0.4 -2.8,-1.2 -1.6,-1.6 -1.6,-4 0,-5.6 L 96.4,179.6 C 104.4,172 114,168 123.6,168 h 76 c 2.4,0 4,1.6 4,4 0,2.4 -1.6,4 -4,4 h -76 c -10.4,0 -18.8,6.8 -21.6,9.6 l -71.6,68.8 c -0.8,0.8 -2,0.8 -2.8,0.8 z"
   id="path30"
   inkscape:connector-curvature="0" />
<g
   id="g32"
   transform="translate(0,-67.8)">
</g>
<g
   id="g34"
   transform="translate(0,-67.8)">
</g>
<g
   id="g36"
   transform="translate(0,-67.8)">
</g>
<g
   id="g38"
   transform="translate(0,-67.8)">
</g>
<g
   id="g40"
   transform="translate(0,-67.8)">
</g>
<g
   id="g42"
   transform="translate(0,-67.8)">
</g>
<g
   id="g44"
   transform="translate(0,-67.8)">
</g>
<g
   id="g46"
   transform="translate(0,-67.8)">
</g>
<g
   id="g48"
   transform="translate(0,-67.8)">
</g>
<g
   id="g50"
   transform="translate(0,-67.8)">
</g>
<g
   id="g52"
   transform="translate(0,-67.8)">
</g>
<g
   id="g54"
   transform="translate(0,-67.8)">
</g>
<g
   id="g56"
   transform="translate(0,-67.8)">
</g>
<g
   id="g58"
   transform="translate(0,-67.8)">
</g>
<g
   id="g60"
   transform="translate(0,-67.8)">
</g>
<text
   xml:space="preserve"
   style="font-style:normal;font-weight:normal;font-size:40px;line-height:1.25;font-family:sans-serif;letter-spacing:0px;word-spacing:0px;fill:#000000;fill-opacity:1;stroke:none"
   x="154.80782"
   y="336.33594"
   id="text843"><tspan
     sodipodi:role="line"
     id="tspan841"
     x="154.80782"
     y="336.33594"
     style="font-style:normal;font-variant:normal;font-weight:bold;font-stretch:normal;font-size:96px;font-family:Arial;-inkscape-font-specification:'Arial Bold'">CSV</tspan></text>
</svg>