<?xml version="1.0" encoding="UTF-8" standalone="no"?>
<!-- Created with Inkscape (http://www.inkscape.org/) -->

<svg
   xmlns:dc="http://purl.org/dc/elements/1.1/"
   xmlns:cc="http://creativecommons.org/ns#"
   xmlns:rdf="http://www.w3.org/1999/02/22-rdf-syntax-ns#"
   xmlns:svg="http://www.w3.org/2000/svg"
   xmlns="http://www.w3.org/2000/svg"
   xmlns:sodipodi="http://sodipodi.sourceforge.net/DTD/sodipodi-0.dtd"
   xmlns:inkscape="http://www.inkscape.org/namespaces/inkscape"
   width="2.4378321mm"
   height="2.3988893mm"
   viewBox="0 0 2.4378321 2.3988893"
   version="1.1"
   id="svg855"
   inkscape:version="0.92.4 (5da689c313, 2019-01-14)"
   sodipodi:docname="question_mark.svg">
  <defs
     id="defs849" />
  <sodipodi:namedview
     id="base"
     pagecolor="#ffffff"
     bordercolor="#666666"
     borderopacity="1.0"
     inkscape:pageopacity="0.0"
     inkscape:pageshadow="2"
     inkscape:zoom="5.6"
     inkscape:cx="102.51337"
     inkscape:cy="32.118114"
     inkscape:document-units="mm"
     inkscape:current-layer="layer1"
     showgrid="false"
     inkscape:window-width="2880"
     inkscape:window-height="1526"
     inkscape:window-x="-11"
     inkscape:window-y="1599"
     inkscape:window-maximized="1" />
  <metadata
     id="metadata852">
    <rdf:RDF>
      <cc:Work
         rdf:about="">
        <dc:format>image/svg+xml</dc:format>
        <dc:type
           rdf:resource="http://purl.org/dc/dcmitype/StillImage" />
        <dc:title></dc:title>
      </cc:Work>
    </rdf:RDF>
  </metadata>
  <g
     inkscape:label="Layer 1"
     inkscape:groupmode="layer"
     id="layer1"
     transform="translate(-65.304894,-81.866032)">
    <g
       id="g4143"
       transform="matrix(0.24988426,0,0,0.24988426,65.191094,81.73276)">
      <g
         id="g4189"
         transform="matrix(0.37650163,0,0,0.37650163,-10.329135,2.522121)">
        <g
           id="g4209-2-9"
           transform="translate(-68.266503,-91.655475)">
          <path
             id="path4136-8-89-3-0"
             d="M 121.87046,99.122144 A 12.003961,11.796995 0 0 1 109.86651,110.91914 12.003961,11.796995 0 0 1 97.862544,99.122144 12.003961,11.796995 0 0 1 109.86651,87.325149 12.003961,11.796995 0 0 1 121.87046,99.122144 Z"
             style="color:#000000;clip-rule:nonzero;display:inline;overflow:visible;visibility:visible;opacity:1;isolation:auto;mix-blend-mode:normal;color-interpolation:sRGB;color-interpolation-filters:linearRGB;solid-color:#000000;solid-opacity:1;fill:#4ca3ff;fill-opacity:1;fill-rule:nonzero;stroke:#4ca3ff;stroke-width:1.90391004;stroke-linecap:butt;stroke-linejoin:bevel;stroke-miterlimit:4;stroke-dasharray:none;stroke-dashoffset:0;stroke-opacity:1;color-rendering:auto;image-rendering:auto;shape-rendering:auto;text-rendering:auto;enable-background:accumulate"
             inkscape:connector-curvature="0" />
        </g>
      </g>
      <path
         inkscape:connector-curvature="0"
         id="path4186"
         d="m 5.3298586,2.6666667 c -0.3982222,0 -0.7259907,0.1099813 -0.9849527,0.3310185 C 4.0912759,3.2145741 3.911008,3.4611481 3.8067111,3.736111 L 4.4490723,3.9965278 C 4.6078867,3.5343055 4.9020062,3.3009259 5.3298586,3.3009259 c 0.2589635,0 0.45963,0.068592 0.6018521,0.2037038 0.1517033,0.1351111 0.2268515,0.3119351 0.2268515,0.5335646 0,0.1149641 -0.030428,0.2306203 -0.090277,0.3414351 C 6.0137622,4.48511 5.9556548,4.5685648 5.8969881,4.6307871 5.8424654,4.6888618 5.747349,4.7760462 5.6134234,4.8993056 5.3746092,5.1108609 5.2076453,5.2972036 5.113423,5.4560183 5.0186134,5.6100925 4.971062,5.7952775 4.971062,6.011574 V 6.3518517 H 5.6724514 V 6.0624998 c 0,-0.2648889 0.1526112,-0.5290924 0.456019,-0.7939814 l 0.035882,-0.03588 C 6.2941366,5.117083 6.3947871,5.0219346 6.4641206,4.950231 6.5364214,4.8726012 6.6227777,4.7466847 6.7175935,4.5671291 6.8118154,4.3887588 6.859954,4.2118236 6.859954,4.038194 6.859954,3.6387866 6.7167223,3.31212 6.4328715,3.0567125 6.1496083,2.7965648 5.7825998,2.6666667 5.3298586,2.6666667 Z m -0.00922,4.3506943 c -0.144,0 -0.2661852,0.048028 -0.3657407,0.1469906 -0.094229,0.094223 -0.1400408,0.2086389 -0.1400408,0.3437499 0,0.1351113 0.045825,0.2488521 0.1400408,0.3472228 C 5.0544603,7.9513243 5.1766453,8 5.3206453,8 5.4652374,8 5.5857834,7.9513269 5.6805978,7.8553243 5.780154,7.7569531 5.8299042,7.6432127 5.8299042,7.5081015 c 0,-0.135111 -0.049749,-0.2495276 -0.1493064,-0.3437499 C 5.5857871,7.0653873 5.4652374,7.017361 5.3206453,7.017361 Z"
         style="fill:#fbfbfb;fill-opacity:1;fill-rule:evenodd;stroke:#ffffff;stroke-width:0.10666667;stroke-linecap:round;stroke-linejoin:round;stroke-miterlimit:4;stroke-dasharray:none;stroke-opacity:1" />
    </g>
  </g>
</svg>
